HIERARCHY
ROOT hip
{
	OFFSET 0.000000 0.000000 0.000000 
	CHANNELS 6 Xposition Yposition Zposition Xrotation Zrotation Yrotation
	JOINT abdomen
	{
		OFFSET 0.000000 3.402643 0.000000 
		CHANNELS 3 Xrotation Zrotation Yrotation
		JOINT chest
		{
			OFFSET 0.000000 8.438565 -0.680529 
			CHANNELS 3 Xrotation Zrotation Yrotation
			JOINT neck
			{
				OFFSET 0.000000 10.207942 -0.272212 
				CHANNELS 3 Xrotation Zrotation Yrotation
				JOINT head
				{
					OFFSET 0.000000 3.130431 0.000000 
					CHANNELS 3 Xrotation Zrotation Yrotation
					End Site
					{
						OFFSET 0.000000 3.130435 0.000000 
					}
				}
			}
			JOINT lCollar
			{
				OFFSET 3.470700 6.669187 -0.816635 
				CHANNELS 3 Yrotation Zrotation Xrotation
				JOINT lShldr
				{
					OFFSET 3.198488 0.000000 0.000000 
					CHANNELS 3 Zrotation Yrotation Xrotation
					JOINT lForeArm
					{
						OFFSET 10.139888 0.000000 0.000000 
						CHANNELS 3 Yrotation Zrotation Xrotation
						JOINT lHand
						{
							OFFSET 8.370511 0.000000 0.000000 
							CHANNELS 3 Zrotation Yrotation Xrotation
							End Site
							{
								OFFSET 4.083176 0.000000 0.000000 
							}
						}
					}
				}
			}
			JOINT rCollar
			{
				OFFSET -3.470700 6.669187 -0.816635 
				CHANNELS 3 Yrotation Zrotation Xrotation
				JOINT rShldr
				{
					OFFSET -3.198488 0.000000 0.000000 
					CHANNELS 3 Zrotation Yrotation Xrotation
					JOINT rForeArm
					{
						OFFSET -10.139888 0.000000 0.000000 
						CHANNELS 3 Yrotation Zrotation Xrotation
						JOINT rHand
						{
							OFFSET -8.370511 0.000000 0.000000 
							CHANNELS 3 Zrotation Yrotation Xrotation
							End Site
							{
								OFFSET -4.083176 0.000000 0.000000 
							}
						}
					}
				}
			}
		}
	}
	JOINT lThigh
	{
		OFFSET 5.308129 -1.633274 1.361059 
		CHANNELS 3 Xrotation Zrotation Yrotation
		JOINT lShin
		{
			OFFSET -2.041588 -20.007561 0.000000 
			CHANNELS 3 Xrotation Zrotation Yrotation
			JOINT lFoot
			{
				OFFSET 0.000000 -19.190928 -1.224953 
				CHANNELS 3 Xrotation Yrotation Zrotation
				End Site
				{
					OFFSET 0.000000 -2.449906 4.627600 
				}
			}
		}
	}
	JOINT rThigh
	{
		OFFSET -5.308129 -1.633274 1.361059 
		CHANNELS 3 Xrotation Zrotation Yrotation
		JOINT rShin
		{
			OFFSET 2.041588 -20.007561 0.000000 
			CHANNELS 3 Xrotation Zrotation Yrotation
			JOINT rFoot
			{
				OFFSET 0.000000 -19.190928 -1.224953 
				CHANNELS 3 Xrotation Yrotation Zrotation
				End Site
				{
					OFFSET 0.000000 -2.449906 4.627600 
				}
			}
		}
	}
}
MOTION
Frames: 15
Frame Time: 0.016667
-4.875906 71.463623 -89.152466 6.873660 -2.831100 7.979110 -17.349100 2.828630 0.628654 21.689699 -1.132590 0.787960 23.158899 1.204770 -3.726700 13.199600 4.946310 -1.728220 2.000000 -2.000000 0.000000 -44.600899 8.559980 125.066002 131.054993 -0.118639 0.120257 0.048932 -0.036886 -150.212997 -2.000000 2.000000 0.000000 62.745201 -11.093000 171.436996 -61.602100 0.279871 0.120271 -0.054550 0.006971 -139.412003 -32.948803 1.324947 -1.913419 43.959747 1.851494 3.243174 -1.739133 -15.381312 -0.610257 -11.479707 5.086980 8.602576 25.735790 -2.615519 -2.030015 -32.334347 -7.563172 -5.678558 
-4.967023 71.533157 -89.799202 6.987690 -2.219730 7.247360 -17.158800 2.656940 0.893870 21.718901 -0.820144 0.881661 23.017799 0.952738 -3.658010 13.139300 4.850830 -1.670570 2.000000 -2.000000 0.000000 -44.492100 8.197700 124.364998 130.537003 -0.119641 0.121122 0.050251 -0.042081 -152.126999 -2.000000 2.000000 0.000000 63.340302 -11.595900 169.375000 -61.855999 0.279337 0.120558 -0.054480 0.005113 -138.748001 -32.007481 0.073038 -1.340598 43.658321 1.821796 3.249341 -4.620383 -16.030272 -1.601033 -14.173566 3.679869 7.904720 31.896803 -2.547147 -2.425983 -27.921665 -8.652101 -5.532014 
-5.046390 71.686394 -90.428741 7.023190 -1.260010 6.328980 -16.878000 2.280000 1.223090 21.845800 -0.673658 0.961289 22.927401 0.643698 -3.483960 13.068900 4.736170 -1.558010 2.000000 -2.000000 0.000000 -44.276199 7.523310 123.945999 129.570999 -0.121533 0.122713 0.051417 -0.046156 -153.639999 -2.000000 2.000000 0.000000 64.286903 -11.962900 167.598999 -61.982899 0.279070 0.120701 -0.054517 0.006151 -139.119003 -30.507385 -1.474336 -0.545717 42.522774 1.817636 3.209447 -7.660557 -16.531656 -2.687584 -17.088432 1.844422 7.581975 38.210812 -2.377318 -2.812467 -22.593609 -10.601793 -5.468664 
-5.118118 71.875229 -91.048859 6.972740 -0.281109 5.453850 -16.627800 1.822950 1.448760 21.904400 -0.644353 0.990591 22.900299 0.302153 -3.231650 13.008200 4.611670 -1.397080 2.000000 -2.000000 0.000000 -43.924099 6.810100 123.703003 128.272003 -0.124116 0.124799 0.052268 -0.048899 -154.666000 -2.000000 2.000000 0.000000 65.448502 -12.408900 166.220993 -62.256401 0.278493 0.121006 -0.054735 0.010384 -140.632996 -28.753290 -3.009784 0.207905 40.962807 1.859607 3.128292 -10.620672 -16.780840 -3.763227 -19.927788 -0.014770 7.554455 43.556362 -2.184562 -3.117878 -17.806803 -10.588627 -4.470126 
-5.200373 72.059914 -91.688057 6.963060 0.397438 4.775170 -16.488400 1.419280 1.510210 21.875099 -0.702939 0.960266 22.882200 -0.019661 -2.941610 12.948200 4.525710 -1.240390 2.000000 -2.000000 0.000000 -43.542801 6.077480 123.556999 126.806999 -0.127086 0.127081 0.052742 -0.050355 -155.212997 -2.000000 2.000000 0.000000 66.727501 -13.021700 165.164001 -62.813000 0.277315 0.121618 -0.055226 0.016270 -142.742004 -27.060163 -4.216637 0.756745 39.188328 1.891933 3.057250 -12.979399 -17.287455 -4.755524 -22.553431 -1.519373 7.417193 47.220524 -2.005711 -3.309639 -14.771177 -7.681622 -2.995632 
-5.290401 72.231575 -92.342766 7.100100 0.668661 4.302140 -16.430300 1.138020 1.370560 21.836100 -0.800582 0.851126 22.843901 -0.347910 -2.627130 12.917800 4.458600 -1.067690 2.000000 -2.000000 0.000000 -43.298401 5.335190 123.480003 125.322998 -0.130154 0.129316 0.052819 -0.050588 -155.300995 -2.000000 2.000000 0.000000 67.899300 -13.762300 164.479004 -63.545399 0.275755 0.122407 -0.055826 0.021349 -144.567993 -25.591133 -4.974430 1.003965 37.403248 1.925257 2.975960 -15.044165 -17.846878 -5.704806 -25.255009 -2.422155 6.877305 49.570316 -1.836276 -3.447754 -13.512866 -4.219760 -1.882498 
-5.377372 72.393669 -92.978935 7.344280 0.687672 3.965690 -16.471399 0.927701 1.086950 21.787300 -0.868940 0.684313 22.854900 -0.721516 -2.318920 12.906800 4.371900 -0.896443 2.000000 -2.000000 0.000000 -43.308300 4.778640 123.549004 123.995003 -0.132947 0.131247 0.052622 -0.049991 -155.076004 -2.000000 2.000000 0.000000 68.866402 -14.610900 164.067001 -64.190002 0.274374 0.123084 -0.056128 0.023488 -145.339996 -24.112938 -5.522365 0.939663 35.271908 1.980377 2.838906 -16.629864 -18.330090 -6.520512 -27.771303 -2.982441 5.801865 50.711838 -1.727935 -3.522483 -13.293075 -2.156430 -1.337233 
-5.481958 72.557800 -93.571175 7.608050 0.735655 3.780020 -16.580900 0.771577 0.725875 21.709101 -0.781092 0.482203 22.889299 -1.124810 -2.060290 12.905500 4.275420 -0.745471 2.000000 -2.000000 0.000000 -43.474800 4.349330 123.833000 122.813004 -0.135469 0.132910 0.052326 -0.049081 -154.733994 -2.000000 2.000000 0.000000 69.677299 -15.655000 163.684006 -64.678299 0.273323 0.123587 -0.055975 0.022432 -144.959000 -22.385061 -6.113223 0.536004 32.630524 2.019482 2.667320 -17.638662 -18.735540 -7.145590 -29.926594 -3.479723 4.369396 50.910896 -1.680863 -3.563586 -13.858884 -1.093053 -1.077541 
-5.626213 72.736076 -94.130852 7.822970 0.764305 3.698880 -16.689699 0.656308 0.362686 21.660200 -0.576065 0.291540 22.880400 -1.406980 -1.838460 12.885100 4.217800 -0.628982 2.000000 -2.000000 0.000000 -43.602798 4.018060 124.399002 121.748001 -0.137770 0.134364 0.051954 -0.047908 -154.294998 -2.000000 2.000000 0.000000 70.586098 -16.972200 163.160004 -65.313004 0.271951 0.124228 -0.055674 0.020182 -144.147995 -20.641415 -6.607183 -0.198531 30.077118 2.063410 2.530998 -18.355587 -19.100548 -7.650218 -31.514561 -3.811126 2.752548 49.961693 -1.675236 -3.530404 -14.648536 -0.636364 -0.954594 
-5.809684 72.922112 -94.670639 7.979190 0.744674 3.737310 -16.719299 0.507228 0.020599 21.748100 -0.400304 0.099029 22.682501 -1.478830 -1.659200 12.787200 4.219120 -0.538509 2.000000 -2.000000 0.000000 -43.555302 3.589280 125.072998 120.751999 -0.139947 0.135685 0.051512 -0.046470 -153.757996 -2.000000 2.000000 0.000000 71.788002 -18.465000 162.589996 -66.231003 0.269953 0.125127 -0.055593 0.019531 -143.914001 -18.880198 -6.934172 -1.140996 27.609777 2.101577 2.369349 -18.601454 -19.375517 -7.952977 -32.601612 -3.883664 1.098491 48.314587 -1.731683 -3.465947 -15.771904 -0.838173 -0.987206 
-6.022205 73.101173 -95.191544 8.037810 0.754237 3.895690 -16.670000 0.255423 -0.290067 21.923901 -0.361225 -0.096573 22.362499 -1.313270 -1.500130 12.660700 4.278740 -0.470710 2.000000 -2.000000 0.000000 -43.322102 3.023760 125.709000 119.844002 -0.141952 0.136857 0.051006 -0.044766 -153.123001 -2.000000 2.000000 0.000000 73.302498 -19.928801 162.138000 -67.109901 0.268027 0.125957 -0.055830 0.021376 -144.578003 -17.115007 -7.104098 -1.992784 25.329861 2.112982 2.224818 -18.126862 -19.987507 -8.079718 -32.994148 -3.785016 -0.428023 45.969673 -1.824247 -3.354743 -17.017008 -1.637230 -1.227954 
-6.259373 73.270477 -95.691116 7.959730 0.783396 4.142860 -16.600401 -0.038212 -0.629078 22.099600 -0.302625 -0.301172 22.109900 -1.093260 -1.308380 12.554100 4.367090 -0.397359 2.000000 -2.000000 0.000000 -43.147301 2.428780 126.226997 119.014000 -0.143800 0.137900 0.050447 -0.042793 -152.389999 -2.000000 2.000000 0.000000 74.856300 -21.266199 161.910004 -67.734901 0.266650 0.126530 -0.056284 0.024515 -145.710999 -15.349876 -7.059179 -2.449531 23.330744 2.140635 2.067301 -16.890074 -21.084965 -7.996752 -32.770042 -3.509020 -1.707587 43.262737 -1.899073 -3.230645 -18.137957 -2.654652 -1.556255 
-6.521436 73.419769 -96.180679 7.813310 0.822373 4.487970 -16.539801 -0.326014 -0.980415 22.255899 -0.224511 -0.514511 22.050400 -0.891604 -1.077510 12.516400 4.473860 -0.296619 2.000000 -2.000000 0.000000 -43.128700 1.951010 126.754997 118.262001 -0.145487 0.138822 0.049822 -0.040469 -151.531006 -2.000000 2.000000 0.000000 76.429604 -22.535200 161.682007 -68.154800 0.265722 0.126906 -0.056683 0.026971 -146.598999 -13.669224 -6.742623 -2.472456 21.762230 2.178780 1.949905 -14.345918 -23.010948 -7.515583 -32.048721 -3.091410 -2.762562 40.336918 -2.009533 -3.079827 -18.855145 -3.354082 -1.796019 
-6.785419 73.535141 -96.645203 7.588890 0.929290 4.928630 -16.459400 -0.685394 -1.300800 22.490299 -0.253762 -0.721501 22.174601 -0.682403 -0.805223 12.547000 4.560370 -0.183689 2.000000 -2.000000 0.000000 -43.217602 1.522040 127.253998 117.540001 -0.147120 0.139686 0.049174 -0.037897 -150.584000 -2.000000 2.000000 0.000000 78.129700 -23.676901 161.298996 -68.340401 0.265310 0.127070 -0.056771 0.027483 -146.785004 -12.112643 -6.363615 -2.335729 20.595766 2.211549 1.842230 -10.186082 -25.239126 -6.204794 -31.009804 -2.694040 -3.685856 37.605381 -2.116708 -2.925430 -18.968433 -3.461826 -1.785468 
-7.026103 73.614227 -97.076355 7.198710 1.143260 5.281280 -16.350500 -1.089110 -1.517680 22.734400 -0.419619 -0.894935 22.425600 -0.556854 -0.549169 12.616500 4.627000 -0.060651 2.000000 -2.000000 0.000000 -43.521099 1.180850 127.674004 116.835999 -0.148719 0.140508 0.048557 -0.035261 -149.617004 -2.000000 2.000000 0.000000 79.800400 -24.701401 160.886002 -68.311096 0.265375 0.127044 -0.056660 0.026837 -146.550995 -10.719967 -6.059481 -2.272676 20.208591 2.311300 1.777949 -5.175039 -26.786570 -4.115301 -29.612545 -2.351321 -4.457183 35.314491 -2.191197 -2.765070 -18.585537 -3.236668 -1.640030 
